P3
63 80
255
0 0 0  0 0 0  0 0 0  0 0 0  0 0 0  0 0 0
0 0 0  0 0 0  0 0 0  0 0 0  0 0 0  0 0 0
0 0 0  0 0 0  0 0 0  0 0 0  0 0 0  0 0 0
0 0 0  0 0 0  0 0 0  0 0 0  0 0 0  0 0 0
0 0 0  0 0 0  0 0 0  0 0 0  0 0 0  0 0 0
0 0 0  0 0 0  0 0 0  0 0 0  0 0 0  0 0 0
0 0 0  0 0 0  0 0 0  0 0 0  0 0 0  0 0 0
0 0 0  0 0 0  0 0 0  0 0 0  0 0 0  0 0 0
0 0 0  0 0 0  0 0 0  0 0 0  0 0 0  0 0 0
0 0 0  0 0 0  0 0 0  0 0 0  0 0 0  0 0 0
0 0 0  0 0 0  0 0 0
0 0 0  0 0 0  0 0 0  0 0 0  0 0 0  0 0 0
0 0 0  0 0 0  0 0 0  0 0 0  0 0 0  0 0 0
0 0 0  0 0 0  0 0 0  0 0 0  0 0 0  0 0 0
0 0 0  0 0 0  0 0 0  0 0 0  0 0 0  0 0 0
0 0 0  0 0 0  0 0 0  0 0 0  0 0 0  0 0 0
0 0 0  0 0 0  0 0 0  0 0 0  0 0 0  0 0 0
0 0 0  0 0 0  0 0 0  0 0 0  0 0 0  0 0 0
0 0 0  0 0 0  0 0 0  0 0 0  0 0 0  0 0 0
0 0 0  0 0 0  0 0 0  0 0 0  0 0 0  0 0 0
0 0 0  0 0 0  0 0 0  0 0 0  0 0 0  0 0 0
0 0 0  0 0 0  0 0 0
0 0 0  0 0 0  0 0 0  0 0 0  0 0 0  0 0 0
0 0 0  0 0 0  0 0 0  0 0 0  0 0 0  0 0 0
0 0 0  0 0 0  0 0 0  0 0 0  0 0 0  0 0 0
0 0 0  0 0 0  0 0 0  0 0 0  0 0 0  0 0 0
0 0 0  0 0 0  0 0 0  0 0 0  0 0 0  0 0 0
0 0 0  0 0 0  0 0 0  0 0 0  0 0 0  0 0 0
0 0 0  0 0 0  0 0 0  0 0 0  0 0 0  0 0 0
0 0 0  0 0 0  0 0 0  0 0 0  0 0 0  0 0 0
0 0 0  0 0 0  0 0 0  0 0 0  0 0 0  0 0 0
0 0 0  0 0 0  0 0 0  0 0 0  0 0 0  0 0 0
0 0 0  0 0 0  0 0 0
0 0 0  0 0 0  0 0 0  0 0 0  0 0 0  0 0 0
0 0 0  0 0 0  0 0 0  0 0 0  0 0 0  0 0 0
0 0 0  0 0 0  0 0 0  0 0 0  0 0 0  0 0 0
0 0 0  0 0 0  0 0 0  0 0 0  0 0 0  0 0 0
0 0 0  0 0 0  0 0 0  0 0 0  0 0 0  0 0 0
0 0 0  0 0 0  0 0 0  0 0 0  0 0 0  0 0 0
0 0 0  0 0 0  0 0 0  0 0 0  0 0 0  0 0 0
0 0 0  0 0 0  0 0 0  0 0 0  0 0 0  0 0 0
0 0 0  0 0 0  0 0 0  0 0 0  0 0 0  0 0 0
0 0 0  0 0 0  0 0 0  0 0 0  0 0 0  0 0 0
0 0 0  0 0 0  0 0 0
0 0 0  0 0 0  0 0 0  0 0 0  0 0 0  0 0 0
0 0 0  0 0 0  0 0 0  0 0 0  0 0 0  0 0 0
0 0 0  0 0 0  0 0 0  0 0 0  0 0 0  0 0 0
0 0 0  0 0 0  0 0 0  0 0 0  0 0 0  0 0 0
0 0 0  0 0 0  0 0 0  0 0 0  0 0 0  0 0 0
0 0 0  0 0 0  0 0 0  0 0 0  0 0 0  0 0 0
0 0 0  0 0 0  0 0 0  0 0 0  0 0 0  0 0 0
0 0 0  0 0 0  0 0 0  0 0 0  0 0 0  0 0 0
0 0 0  0 0 0  0 0 0  0 0 0  0 0 0  0 0 0
0 0 0  0 0 0  0 0 0  0 0 0  0 0 0  0 0 0
0 0 0  0 0 0  0 0 0
0 0 0  0 0 0  0 0 0  0 0 0  0 0 0  0 0 0
0 0 0  0 0 0  0 0 0  0 0 0  0 0 0  0 0 0
0 0 0  0 0 0  0 0 0  0 0 0  0 0 0  0 0 0
0 0 0  0 0 0  0 0 0  0 0 0  0 0 0  0 0 0
0 0 0  0 0 0  0 0 0  0 0 0  0 0 0  0 0 0
0 0 0  0 0 0  0 0 0  0 0 0  0 0 0  0 0 0
0 0 0  0 0 0  0 0 0  0 0 0  0 0 0  0 0 0
0 0 0  0 0 0  0 0 0  0 0 0  0 0 0  0 0 0
0 0 0  0 0 0  0 0 0  0 0 0  0 0 0  0 0 0
0 0 0  0 0 0  0 0 0  0 0 0  0 0 0  0 0 0
0 0 0  0 0 0  0 0 0
0 0 0  0 0 0  0 0 0  0 0 0  0 0 0  0 0 0
0 0 0  0 0 0  0 0 0  0 0 0  0 0 0  0 0 0
0 0 0  0 0 0  0 0 0  0 0 0  0 0 0  0 0 0
0 0 0  0 0 0  0 0 0  0 0 0  0 0 0  0 0 0
0 0 0  0 0 0  0 0 0  0 0 0  0 0 0  0 0 0
0 0 0  0 0 0  0 0 0  0 0 0  0 0 0  0 0 0
0 0 0  0 0 0  0 0 0  0 0 0  0 0 0  0 0 0
0 0 0  0 0 0  0 0 0  0 0 0  0 0 0  0 0 0
0 0 0  0 0 0  0 0 0  0 0 0  0 0 0  0 0 0
0 0 0  0 0 0  0 0 0  0 0 0  0 0 0  0 0 0
0 0 0  0 0 0  0 0 0
0 0 0  0 0 0  0 0 0  0 0 0  0 0 0  0 0 0
0 0 0  0 0 0  0 0 0  0 0 0  0 0 0  0 0 0
0 0 0  0 0 0  0 0 0  0 0 0  0 0 0  0 0 0
0 0 0  0 0 0  0 0 0  0 0 0  0 0 0  0 0 0
0 0 0  0 0 0  0 0 0  0 0 0  0 0 0  0 0 0
0 0 0  0 0 0  0 0 0  0 0 0  0 0 0  0 0 0
0 0 0  0 0 0  0 0 0  0 0 0  0 0 0  0 0 0
0 0 0  0 0 0  0 0 0  0 0 0  0 0 0  0 0 0
0 0 0  0 0 0  0 0 0  0 0 0  0 0 0  0 0 0
0 0 0  0 0 0  0 0 0  0 0 0  0 0 0  0 0 0
0 0 0  0 0 0  0 0 0
0 0 0  0 0 0  0 0 0  0 0 0  0 0 0  0 0 0
0 0 0  0 0 0  0 0 0  0 0 0  0 0 0  0 0 0
0 0 0  0 0 0  0 0 0  0 0 0  0 0 0  0 0 0
0 0 0  0 0 0  0 0 0  0 0 0  0 0 0  0 0 0
0 0 0  0 0 0  0 0 0  0 0 0  0 0 0  0 0 0
0 0 0  0 0 0  0 0 0  0 0 0  0 0 0  0 0 0
0 0 0  0 0 0  0 0 0  0 0 0  0 0 0  0 0 0
0 0 0  0 0 0  0 0 0  0 0 0  0 0 0  0 0 0
0 0 0  0 0 0  0 0 0  0 0 0  0 0 0  0 0 0
0 0 0  0 0 0  0 0 0  0 0 0  0 0 0  0 0 0
0 0 0  0 0 0  0 0 0
0 0 0  0 0 0  0 0 0  0 0 0  0 0 0  0 0 0
0 0 0  0 0 0  0 0 0  0 0 0  0 0 0  0 0 0
0 0 0  0 0 0  0 0 0  0 0 0  0 0 0  0 0 0
0 0 0  0 0 0  0 0 0  0 0 0  0 0 0  0 0 0
0 0 0  0 0 0  0 0 0  0 0 0  0 0 0  0 0 0
0 0 0  0 0 0  0 0 0  0 0 0  0 0 0  0 0 0
0 0 0  0 0 0  0 0 0  0 0 0  0 0 0  0 0 0
0 0 0  0 0 0  0 0 0  0 0 0  0 0 0  0 0 0
0 0 0  0 0 0  0 0 0  0 0 0  0 0 0  0 0 0
0 0 0  0 0 0  0 0 0  0 0 0  0 0 0  0 0 0
0 0 0  0 0 0  0 0 0
0 0 0  0 0 0  0 0 0  0 0 0  0 0 0  0 0 0
0 0 0  0 0 0  0 0 0  0 0 0  0 0 0  0 0 0
0 0 0  0 0 0  0 0 0  0 0 0  0 0 0  0 0 0
0 0 0  0 0 0  0 0 0  0 0 0  0 0 0  0 0 0
0 0 0  0 0 0  0 0 0  0 0 0  0 0 0  0 0 0
0 0 0  0 0 0  0 0 0  0 0 0  0 0 0  0 0 0
0 0 0  0 0 0  0 0 0  0 0 0  0 0 0  0 0 0
0 0 0  0 0 0  0 0 0  0 0 0  0 0 0  0 0 0
0 0 0  0 0 0  0 0 0  0 0 0  0 0 0  0 0 0
0 0 0  0 0 0  0 0 0  0 0 0  0 0 0  0 0 0
0 0 0  0 0 0  0 0 0
0 0 0  0 0 0  0 0 0  0 0 0  0 0 0  0 0 0
0 0 0  0 0 0  0 0 0  0 0 0  0 0 0  0 0 0
0 0 0  0 0 0  0 0 0  0 0 0  0 0 0  0 0 0
0 0 0  0 0 0  0 0 0  0 0 0  0 0 0  0 0 0
0 0 0  0 0 0  0 0 0  0 0 0  0 0 0  0 0 0
0 0 0  0 0 0  0 0 0  0 0 0  0 0 0  0 0 0
0 0 0  0 0 0  0 0 0  0 0 0  0 0 0  0 0 0
0 0 0  0 0 0  0 0 0  0 0 0  0 0 0  0 0 0
0 0 0  0 0 0  0 0 0  0 0 0  0 0 0  0 0 0
0 0 0  0 0 0  0 0 0  0 0 0  0 0 0  0 0 0
0 0 0  0 0 0  0 0 0
0 0 0  0 0 0  0 0 0  0 0 0  0 0 0  0 0 0
0 0 0  0 0 0  0 0 0  0 0 0  0 0 0  0 0 0
0 0 0  0 0 0  0 0 0  0 0 0  0 0 0  0 0 0
0 0 0  0 0 0  0 0 0  0 0 0  0 0 0  0 0 0
0 0 0  0 0 0  0 0 0  0 0 0  0 0 0  0 0 0
0 0 0  0 0 0  0 0 0  0 0 0  0 0 0  0 0 0
0 0 0  0 0 0  0 0 0  0 0 0  0 0 0  0 0 0
0 0 0  0 0 0  0 0 0  0 0 0  0 0 0  0 0 0
0 0 0  0 0 0  0 0 0  0 0 0  0 0 0  0 0 0
0 0 0  0 0 0  0 0 0  0 0 0  0 0 0  0 0 0
0 0 0  0 0 0  0 0 0
0 0 0  0 0 0  0 0 0  0 0 0  0 0 0  0 0 0
0 0 0  0 0 0  0 0 0  0 0 0  0 0 0  0 0 0
0 0 0  0 0 0  0 0 0  0 0 0  0 0 0  0 0 0
0 0 0  0 0 0  0 0 0  0 0 0  0 0 0  0 0 0
0 0 0  0 0 0  0 0 0  0 0 0  0 0 0  0 0 0
0 0 0  0 0 0  0 0 0  0 0 0  0 0 0  0 0 0
0 0 0  0 0 0  0 0 0  0 0 0  0 0 0  0 0 0
0 0 0  0 0 0  0 0 0  0 0 0  0 0 0  0 0 0
0 0 0  0 0 0  0 0 0  0 0 0  0 0 0  0 0 0
0 0 0  0 0 0  0 0 0  0 0 0  0 0 0  0 0 0
0 0 0  0 0 0  0 0 0
0 0 0  0 0 0  0 0 0  0 0 0  0 0 0  0 0 0
0 0 0  0 0 0  0 0 0  0 0 0  0 0 0  0 0 0
0 0 0  0 0 0  0 0 0  0 0 0  0 0 0  0 0 0
0 0 0  0 0 0  0 0 0  0 0 0  0 0 0  0 0 0
0 0 0  0 0 0  0 0 0  0 0 0  0 0 0  0 0 0
0 0 0  0 0 0  0 0 0  0 0 0  0 0 0  0 0 0
0 0 0  0 0 0  0 0 0  0 0 0  0 0 0  0 0 0
0 0 0  0 0 0  0 0 0  0 0 0  0 0 0  0 0 0
0 0 0  0 0 0  0 0 0  0 0 0  0 0 0  0 0 0
0 0 0  0 0 0  0 0 0  0 0 0  0 0 0  0 0 0
0 0 0  0 0 0  0 0 0
0 0 0  0 0 0  0 0 0  0 0 0  0 0 0  0 0 0
0 0 0  0 0 0  0 0 0  0 0 0  0 0 0  0 0 0
0 0 0  0 0 0  0 0 0  0 0 0  0 0 0  0 0 0
0 0 0  0 0 0  0 0 0  0 0 0  0 0 0  0 0 0
0 0 0  0 0 0  0 0 0  0 0 0  0 0 0  0 0 0
0 0 0  0 0 0  0 0 0  0 0 0  0 0 0  0 0 0
0 0 0  0 0 0  0 0 0  0 0 0  0 0 0  0 0 0
0 0 0  0 0 0  0 0 0  0 0 0  0 0 0  0 0 0
0 0 0  0 0 0  0 0 0  0 0 0  0 0 0  0 0 0
0 0 0  0 0 0  0 0 0  0 0 0  0 0 0  0 0 0
0 0 0  0 0 0  0 0 0
0 0 0  0 0 0  0 0 0  0 0 0  0 0 0  0 0 0
0 0 0  0 0 0  0 0 0  0 0 0  0 0 0  0 0 0
0 0 0  0 0 0  0 0 0  0 0 0  0 0 0  0 0 0
0 0 0  0 0 0  0 0 0  0 0 0  0 0 0  0 0 0
0 0 0  0 0 0  0 0 0  0 0 0  0 0 0  0 0 0
0 0 0  0 0 0  0 0 0  0 0 0  0 0 0  0 0 0
0 0 0  0 0 0  0 0 0  0 0 0  0 0 0  0 0 0
0 0 0  0 0 0  0 0 0  0 0 0  0 0 0  0 0 0
0 0 0  0 0 0  0 0 0  0 0 0  0 0 0  0 0 0
0 0 0  0 0 0  0 0 0  0 0 0  0 0 0  0 0 0
0 0 0  0 0 0  0 0 0
0 0 0  0 0 0  0 0 0  0 0 0  0 0 0  0 0 0
0 0 0  0 0 0  0 0 0  0 0 0  0 0 0  0 0 0
0 0 0  0 0 0  0 0 0  0 0 0  0 0 0  0 0 0
0 0 0  0 0 0  0 0 0  0 0 0  0 0 0  0 0 0
0 0 0  0 0 0  0 0 0  0 0 0  0 0 0  0 0 0
0 0 0  0 0 0  0 0 0  0 0 0  0 0 0  0 0 0
0 0 0  0 0 0  0 0 0  0 0 0  0 0 0  0 0 0
0 0 0  0 0 0  0 0 0  0 0 0  0 0 0  0 0 0
0 0 0  0 0 0  0 0 0  0 0 0  0 0 0  0 0 0
0 0 0  0 0 0  0 0 0  0 0 0  0 0 0  0 0 0
0 0 0  0 0 0  0 0 0
9 9 8  74 162 198  79 188 234  76 185 230  76 185 230  76 185 230
76 185 230  77 185 230  81 190 236  62 143 176  7 9 10  0 0 0
0 0 0  0 0 0  0 0 0  0 0 0  0 0 0  0 0 0
0 0 0  0 0 0  0 0 0  0 0 0  0 0 0  0 0 0
11 13 13  69 159 196  77 186 232  76 185 230  76 185 230  76 185 230
76 185 230  76 185 230  76 185 230  76 185 230  76 185 230  76 185 230
76 185 230  76 185 230  76 185 230  76 185 230  76 185 230  76 185 230
76 185 230  76 185 230  76 185 230  76 185 230  76 185 230  76 185 230
76 184 229  82 191 235  75 182 226  66 138 165  39 60 67  7 9 10
0 0 0  0 0 0  0 0 0  0 0 0  0 0 0  0 0 0
0 0 0  0 0 0  0 0 0
13 13 11  13 149 206  0 162 234  0 162 234  0 162 234  0 162 234
0 162 234  0 162 234  0 162 233  4 168 237  46 106 130  4 0 0
0 0 0  0 0 0  0 0 0  0 0 0  0 0 0  0 0 0
0 0 0  0 0 0  0 0 0  0 0 0  0 0 0  4 1 0
49 133 166  0 164 238  0 162 234  0 162 234  0 162 234  0 162 234
0 162 234  0 162 234  0 162 234  0 162 234  0 162 234  0 162 234
0 162 234  0 162 234  0 162 234  0 162 234  0 162 234  0 162 234
0 162 234  0 162 234  0 162 234  0 162 234  0 162 234  0 162 234
0 162 234  0 162 233  0 162 233  0 165 238  21 175 241  50 129 160
24 33 36  0 0 0  0 0 0  0 0 0  0 0 0  0 0 0
0 0 0  0 0 0  0 0 0
12 12 10  18 149 205  0 163 233  0 163 232  0 163 232  0 163 232
0 163 232  0 163 232  0 163 232  0 163 233  17 172 238  44 84 99
0 0 0  0 0 0  0 0 0  0 0 0  0 0 0  0 0 0
0 0 0  0 0 0  0 0 0  0 0 0  0 0 0  54 108 128
7 167 234  0 163 232  0 163 232  0 163 232  0 163 232  0 163 232
0 163 232  0 163 232  0 163 232  0 163 232  0 163 232  0 163 232
0 163 232  0 163 232  0 163 232  0 163 232  0 163 232  0 163 232
0 163 232  0 163 232  0 163 232  0 163 232  0 163 232  0 163 232
0 163 232  0 163 232  0 163 232  0 163 232  0 163 233  2 168 238
43 151 196  17 19 19  0 0 0  0 0 0  0 0 0  0 0 0
0 0 0  0 0 0  0 0 0
12 12 10  18 149 205  0 163 233  0 163 232  0 163 232  0 163 232
0 163 232  0 163 232  0 163 232  0 163 232  0 163 232  27 166 225
30 37 37  0 0 0  0 0 0  0 0 0  0 0 0  0 0 0
0 0 0  0 0 0  0 0 0  0 0 0  41 70 81  10 163 228
0 163 232  0 163 232  0 163 232  0 163 232  0 163 232  0 163 232
0 163 232  0 163 232  0 163 232  0 163 232  0 163 232  0 163 232
0 163 232  0 163 232  0 163 232  0 163 232  0 163 232  0 163 232
0 163 232  0 163 232  0 163 232  0 163 232  0 163 232  0 163 232
0 163 232  0 163 232  0 163 232  0 163 232  0 163 232  0 163 232
1 164 233  59 151 187  2 0 0  0 0 0  0 0 0  0 0 0
0 0 0  0 0 0  0 0 0
12 12 10  18 149 205  0 163 233  0 163 232  0 163 232  0 163 232
0 163 232  0 163 232  0 163 232  0 163 232  0 163 232  0 163 233
55 174 224  18 19 18  0 0 0  0 0 0  0 0 0  0 0 0
0 0 0  0 0 0  0 0 0  15 17 18  37 169 222  0 163 232
0 163 233  1 163 232  0 163 232  0 163 232  0 163 232  0 163 232
0 163 232  0 163 232  0 163 232  0 163 232  0 163 232  0 163 232
0 163 232  0 163 232  0 163 232  0 163 232  0 163 232  0 163 232
0 163 232  0 163 232  0 163 232  0 163 232  0 163 232  0 163 232
0 163 232  0 163 232  0 163 232  0 163 232  0 163 232  0 163 232
0 163 232  0 163 235  55 93 107  0 0 0  0 0 0  0 0 0
0 0 0  0 0 0  0 0 0
12 12 10  18 149 205  0 163 233  0 163 232  0 163 232  0 163 232
0 163 232  0 163 232  0 163 232  0 163 232  0 163 232  0 163 232
0 162 233  51 133 166  7 5 4  0 0 0  0 0 0  0 0 0
0 0 0  0 0 0  11 13 13  56 162 204  0 163 235  0 163 232
1 163 232  1 163 232  0 163 232  0 163 232  0 163 232  0 163 232
0 163 232  0 163 232  0 163 232  0 163 232  0 163 232  0 163 232
0 163 232  0 163 232  0 163 232  0 163 232  0 163 232  0 163 232
0 163 232  0 163 232  0 163 232  0 163 232  0 163 232  0 163 232
0 163 232  0 163 232  0 163 232  0 163 232  0 163 232  1 164 233
0 163 232  0 163 233  35 152 200  1 1 2  0 0 0  0 0 0
0 0 0  0 0 0  0 0 0
12 12 10  18 149 205  0 163 233  0 163 232  0 163 232  0 163 232
0 163 232  0 163 232  0 163 232  0 163 232  0 163 232  0 163 232
0 163 232  12 171 239  53 108 129  3 0 0  0 0 0  0 0 0
0 0 0  1 0 0  48 122 151  0 163 233  0 163 232  0 163 232
0 163 232  0 163 232  0 163 232  0 163 232  0 163 232  0 163 232
0 163 232  0 163 232  0 163 232  0 163 232  0 163 232  0 163 232
0 163 232  0 163 232  0 163 232  0 163 232  0 163 232  0 163 232
0 163 232  0 163 232  0 163 232  0 163 232  0 163 232  0 163 232
0 163 232  0 163 232  0 163 232  0 163 232  0 163 232  0 163 232
0 163 232  0 163 232  16 171 237  30 41 43  0 0 0  0 0 0
0 0 0  0 0 0  0 0 0
12 12 10  18 149 205  0 163 233  0 163 232  0 163 232  0 163 232
0 163 232  0 163 232  0 163 232  0 163 232  0 163 232  0 163 232
0 163 232  0 162 232  16 167 230  44 71 81  0 0 0  0 0 0
0 0 0  57 106 124  8 167 233  0 163 232  0 163 232  0 163 232
0 163 232  0 163 232  0 163 232  0 163 232  0 163 232  0 163 232
0 163 232  0 163 232  0 163 232  0 163 232  0 163 232  0 163 232
0 163 232  0 163 232  0 163 232  0 163 232  0 163 232  0 163 232
0 163 232  0 163 232  0 163 232  0 163 232  0 163 232  0 163 232
0 163 232  0 163 232  0 163 232  0 163 232  0 163 232  0 163 232
0 163 232  0 163 232  0 165 236  70 118 136  0 0 0  0 0 0
0 0 0  0 0 0  0 0 0
12 12 10  18 149 205  0 163 233  0 163 232  0 163 232  0 163 232
0 163 232  0 163 232  0 163 232  0 163 232  0 163 232  0 163 232
0 163 232  0 163 232  0 163 232  46 176 229  29 29 29  0 0 0
27 46 52  12 163 225  0 163 233  0 163 232  1 163 232  0 163 232
0 163 232  0 163 232  0 163 232  0 163 232  0 163 232  0 163 232
0 163 232  0 163 232  0 163 232  0 163 232  0 163 232  0 163 232
0 163 232  0 163 232  0 163 232  0 163 232  0 163 232  0 163 232
0 163 232  0 163 232  0 163 232  0 163 232  0 163 232  0 163 232
0 163 232  0 163 232  0 163 232  0 163 232  0 163 232  0 163 232
0 163 232  0 163 232  0 163 234  65 159 196  0 0 0  0 0 0
0 0 0  0 0 0  0 0 0
12 12 10  18 149 205  0 163 233  0 163 232  0 163 232  0 163 232
0 163 232  0 163 232  0 163 233  0 164 232  0 163 232  0 163 232
0 163 232  0 163 232  0 163 232  0 162 232  60 166 209  25 31 33
50 172 221  0 163 233  0 163 232  0 163 232  0 163 232  0 163 232
0 163 232  1 163 232  0 163 232  0 163 232  0 163 232  0 163 232
0 163 232  0 163 232  0 163 232  0 163 232  0 164 234  1 164 233
0 164 233  0 164 233  0 164 233  0 164 233  0 164 233  0 164 233
0 164 233  0 164 233  0 164 233  0 164 233  0 164 233  0 164 233
0 164 233  0 163 232  0 163 232  0 163 232  0 163 232  0 163 232
0 163 232  0 163 232  0 162 232  66 190 238  0 0 0  0 0 0
0 0 0  0 0 0  0 0 0
12 12 10  18 149 205  0 163 233  0 163 232  0 163 232  0 163 232
0 163 232  0 163 232  0 163 232  0 162 232  0 163 232  0 163 232
0 163 232  0 163 232  0 163 232  0 163 232  1 165 234  48 172 222
0 163 235  0 163 232  0 163 232  0 163 232  0 163 232  0 163 232
0 163 233  0 163 233  0 163 232  0 163 232  0 163 232  0 163 232
0 163 232  0 163 232  0 163 232  26 161 217  24 122 163  25 124 165
25 124 165  25 124 165  25 124 165  25 124 165  25 124 165  25 124 165
25 124 165  25 124 165  25 124 165  25 124 165  25 124 165  25 124 165
24 124 165  28 157 210  0 163 232  0 163 232  0 163 232  0 163 232
0 163 232  0 163 232  0 162 232  49 182 238  0 0 0  0 0 0
0 0 0  0 0 0  0 0 0
12 12 10  18 149 205  0 163 233  0 163 232  0 163 232  0 163 232
0 163 232  0 163 232  0 162 233  49 178 231  1 164 233  0 163 232
0 163 232  0 163 232  0 163 232  0 163 232  0 163 232  0 163 234
0 163 232  1 163 232  1 163 232  0 163 232  0 163 232  0 164 233
21 165 226  56 171 215  0 163 233  0 163 232  0 163 232  0 163 232
0 163 232  0 163 232  0 163 232  49 139 174  13 10 8  16 16 14
16 16 14  16 16 14  16 16 14  16 16 14  16 16 14  16 16 14
16 16 14  16 16 14  16 16 14  16 16 14  16 16 14  16 16 14
15 14 13  52 127 156  0 163 232  0 163 232  0 163 232  0 163 232
0 163 232  0 163 232  0 162 232  48 182 238  0 0 0  0 0 0
0 0 0  0 0 0  0 0 0
12 12 10  18 149 205  0 163 233  0 163 232  0 163 232  0 163 232
0 163 232  0 163 232  0 162 233  77 151 180  64 159 197  0 162 234
0 163 232  0 164 232  0 163 232  0 163 232  0 163 232  0 163 232
0 163 232  0 163 232  0 163 232  0 163 232  0 163 232  1 163 233
48 92 108  62 152 186  0 164 234  0 163 232  0 163 232  0 163 232
0 163 232  0 163 232  0 163 232  41 131 165  0 0 0  0 0 0
0 0 0  0 0 0  0 0 0  0 0 0  0 0 0  0 0 0
0 0 0  0 0 0  0 0 0  0 0 0  0 0 0  0 0 0
0 0 0  44 118 148  0 163 232  0 163 232  0 163 232  0 163 232
0 163 232  0 163 232  0 163 232  50 182 238  0 0 0  0 0 0
0 0 0  0 0 0  0 0 0
12 12 10  18 149 205  0 163 233  0 163 232  0 163 232  0 163 232
0 163 232  0 163 232  0 163 233  67 139 168  13 8 5  43 158 205
0 163 232  0 163 232  1 163 232  0 163 232  0 163 232  0 163 232
0 163 232  0 163 232  0 163 232  0 163 232  0 164 234  56 137 168
1 0 0  62 153 187  0 164 234  0 163 232  0 163 232  0 163 232
0 163 232  0 163 232  0 163 232  41 131 165  0 0 0  0 0 0
0 0 0  0 0 0  0 0 0  0 0 0  0 0 0  0 0 0
0 0 0  0 0 0  0 0 0  0 0 0  0 0 0  0 0 0
0 0 0  44 119 149  0 163 232  0 163 232  0 163 232  0 163 232
0 163 232  0 163 232  0 163 232  50 182 238  0 0 0  0 0 0
0 0 0  0 0 0  0 0 0
12 12 10  18 149 205  0 163 233  0 163 232  0 163 232  0 163 232
0 163 232  0 163 232  0 163 233  68 140 169  0 0 0  30 42 46
32 166 223  0 163 233  1 163 232  0 163 232  0 163 232  0 163 232
0 163 232  0 163 232  0 163 232  0 163 233  47 148 189  5 0 0
0 0 0  62 153 186  0 164 234  0 163 232  0 163 232  0 163 232
0 163 232  0 163 232  0 163 232  41 131 165  0 0 0  0 0 0
0 0 0  0 0 0  0 0 0  0 0 0  0 0 0  0 0 0
0 0 0  0 0 0  0 0 0  0 0 0  0 0 0  0 0 0
0 0 0  44 119 149  0 163 232  0 163 232  0 163 232  0 163 232
0 163 232  0 163 232  0 163 232  50 182 238  0 0 0  0 0 0
0 0 0  0 0 0  0 0 0
12 12 10  18 149 205  0 163 233  0 163 232  0 163 232  0 163 232
0 163 232  0 163 232  0 163 233  68 140 169  0 0 0  0 0 0
51 77 86  23 165 224  0 163 232  0 163 232  0 163 232  0 163 232
0 163 232  0 163 232  0 163 234  52 173 223  26 35 37  0 0 0
0 0 0  62 153 187  0 164 234  0 163 232  0 163 232  0 163 232
0 163 232  0 163 232  0 163 232  41 131 165  0 0 0  0 0 0
0 0 0  0 0 0  0 0 0  0 0 0  0 0 0  0 0 0
0 0 0  0 0 0  0 0 0  0 0 0  0 0 0  0 0 0
0 0 0  44 119 149  0 163 232  0 163 232  0 163 232  0 163 232
0 163 232  0 163 232  0 163 232  50 182 238  0 0 0  0 0 0
0 0 0  0 0 0  0 0 0
12 12 10  18 149 205  0 163 233  0 163 232  0 163 232  0 163 232
0 163 232  0 163 232  0 163 233  68 140 169  0 0 0  0 0 0
0 0 0  46 84 98  3 167 236  0 163 233  1 163 232  0 164 232
0 163 232  0 163 233  26 166 224  31 47 52  0 0 0  0 0 0
0 0 0  62 153 187  0 164 234  0 163 232  0 163 232  0 163 232
0 163 232  0 163 232  0 163 232  41 131 165  0 0 0  0 0 0
0 0 0  0 0 0  0 0 0  0 0 0  0 0 0  0 0 0
0 0 0  0 0 0  0 0 0  0 0 0  0 0 0  0 0 0
0 0 0  44 119 149  0 163 232  0 163 232  0 163 232  0 163 232
0 163 232  0 163 232  0 163 232  50 182 238  0 0 0  0 0 0
0 0 0  0 0 0  0 0 0
12 12 10  18 149 205  0 163 233  0 163 232  0 163 232  0 163 232
0 163 232  0 163 232  0 163 233  68 140 169  0 0 0  0 0 0
0 0 0  0 0 0  87 138 157  3 165 235  0 163 232  0 163 232
0 163 232  4 165 234  50 84 93  0 0 0  0 0 0  0 0 0
0 0 0  62 153 187  0 164 234  0 163 232  0 163 232  0 163 232
0 163 232  0 163 232  0 163 232  41 131 165  0 0 0  0 0 0
0 0 0  0 0 0  0 0 0  0 0 0  0 0 0  0 0 0
0 0 0  0 0 0  0 0 0  0 0 0  0 0 0  0 0 0
0 0 0  44 119 149  0 163 232  0 163 232  0 163 232  0 163 232
0 163 232  0 163 232  0 163 232  50 182 238  0 0 0  0 0 0
0 0 0  0 0 0  0 0 0
12 12 10  18 149 205  0 163 233  0 163 232  0 163 232  0 163 232
0 163 232  0 163 232  0 163 233  68 140 169  0 0 0  0 0 0
0 0 0  0 1 1  0 0 0  52 138 172  3 166 235  0 163 232
6 165 232  66 117 137  0 0 0  0 0 0  0 0 0  0 0 0
0 0 0  62 153 187  0 164 234  0 163 232  0 163 232  0 163 232
0 163 232  0 163 232  0 163 232  41 131 165  0 0 0  0 0 0
0 0 0  0 0 0  0 0 0  0 0 0  0 0 0  0 0 0
0 0 0  0 0 0  0 0 0  0 0 0  0 0 0  0 0 0
0 0 0  44 119 149  0 163 232  0 163 232  0 163 232  0 163 232
0 163 232  0 163 232  0 163 232  50 182 238  0 0 0  0 0 0
0 0 0  0 0 0  0 0 0
12 12 10  18 149 205  0 163 233  0 163 232  0 163 232  0 163 232
0 163 232  0 163 232  0 163 233  68 140 169  0 0 0  0 0 0
0 0 0  0 0 0  0 0 0  21 20 18  46 148 189  4 171 242
57 140 174  1 0 0  0 1 1  0 0 0  0 0 0  0 0 0
0 0 0  62 153 187  0 164 234  0 163 232  0 163 232  0 163 232
0 163 232  0 163 232  0 163 232  41 132 165  0 0 0  0 0 0
0 0 0  0 0 0  0 0 0  0 0 0  0 0 0  0 0 0
0 0 0  0 0 0  0 0 0  0 0 0  0 0 0  0 0 0
0 0 0  44 119 149  0 163 232  0 163 232  0 163 232  0 163 232
0 163 232  0 163 232  0 163 232  50 182 238  0 0 0  0 0 0
0 0 0  0 0 0  0 0 0
12 12 10  18 149 205  0 163 233  0 163 232  0 163 232  0 163 232
0 163 232  0 163 232  0 163 233  68 140 169  0 0 0  0 0 0
0 0 0  0 0 0  0 0 0  0 0 0  24 33 36  58 127 154
20 22 23  0 0 0  0 0 0  0 0 0  0 0 0  0 0 0
0 0 0  62 153 187  0 164 234  0 163 232  0 163 232  0 163 232
0 163 232  0 163 232  0 163 232  41 131 165  0 0 0  0 0 0
0 0 0  0 0 0  0 0 0  0 0 0  0 0 0  0 0 0
0 0 0  0 0 0  0 0 0  0 0 0  0 0 0  0 0 0
0 0 0  44 119 149  0 163 232  0 163 232  0 163 232  0 163 232
0 163 232  0 163 232  0 163 232  50 182 238  0 0 0  0 0 0
0 0 0  0 0 0  0 0 0
12 12 10  18 149 205  0 163 233  0 163 232  0 163 232  0 163 232
0 163 232  0 163 232  0 163 233  68 140 169  0 0 0  0 0 0
0 0 0  0 0 0  0 0 0  0 0 0  0 0 0  5 7 7
0 0 0  0 0 0  0 0 0  0 0 0  0 0 0  0 0 0
0 0 0  62 153 187  0 164 234  0 163 232  0 163 232  0 163 232
0 163 232  0 163 232  0 163 232  41 131 165  0 0 0  0 0 0
0 0 0  0 0 0  0 0 0  0 0 0  0 0 0  0 0 0
0 0 0  0 0 0  0 0 0  0 0 0  0 0 0  0 0 0
0 0 0  44 119 148  0 163 232  0 163 232  0 163 232  0 163 232
0 163 232  0 163 232  0 163 232  50 182 238  0 0 0  0 0 0
0 0 0  0 0 0  0 0 0
12 12 10  18 149 205  0 163 233  0 163 232  0 163 232  0 163 232
0 163 232  0 163 232  0 163 233  68 140 169  0 0 0  0 0 0
0 0 0  0 0 0  0 0 0  0 0 0  0 0 0  0 0 0
0 0 0  0 0 0  0 0 0  0 0 0  0 0 0  0 0 0
0 0 0  62 153 187  0 164 234  0 163 232  0 163 232  0 163 232
0 163 232  0 163 232  0 163 232  41 131 165  0 0 0  0 0 0
0 0 0  0 0 0  0 0 0  0 0 0  0 0 0  0 0 0
0 0 0  0 0 0  0 0 0  0 0 0  0 0 0  0 0 0
0 0 0  44 119 149  0 163 232  0 163 232  0 163 232  0 163 232
0 163 232  0 163 232  0 163 232  50 182 238  0 0 0  0 0 0
0 0 0  0 0 0  0 0 0
12 12 10  18 149 205  0 163 233  0 163 232  0 163 232  0 163 232
0 163 232  0 163 232  0 163 233  68 140 169  0 0 0  0 0 0
0 0 0  0 0 0  0 0 0  0 0 0  0 0 0  0 0 0
0 0 0  0 0 0  0 0 0  0 0 0  0 0 0  0 0 0
0 0 0  62 153 187  0 164 234  0 163 232  0 163 232  0 163 232
0 163 232  0 163 232  0 163 232  41 131 165  0 0 0  0 0 0
0 0 0  0 0 0  0 0 0  0 0 0  0 0 0  0 0 0
0 0 0  0 0 0  0 0 0  0 0 0  0 0 0  0 0 0
0 0 0  44 119 149  0 163 232  0 163 232  0 163 232  0 163 232
0 163 232  0 163 232  0 163 232  50 182 238  0 0 0  0 0 0
0 0 0  0 0 0  0 0 0
12 12 10  18 149 205  0 163 233  0 163 232  0 163 232  0 163 232
0 163 232  0 163 232  0 163 233  68 140 169  0 0 0  0 0 0
0 0 0  0 0 0  0 0 0  0 0 0  0 0 0  0 0 0
0 0 0  0 0 0  0 0 0  0 0 0  0 0 0  0 0 0
0 0 0  62 153 187  0 164 234  0 163 232  0 163 232  0 163 232
0 163 232  0 163 232  0 163 232  41 131 165  0 0 0  0 0 0
0 0 0  0 0 0  0 0 0  0 0 0  0 0 0  0 0 0
0 0 0  0 0 0  0 0 0  0 0 0  0 0 0  0 0 0
0 0 0  44 119 149  0 163 232  0 163 232  0 163 232  0 163 232
0 163 232  0 163 232  0 163 232  50 182 238  0 0 0  0 0 0
0 0 0  0 0 0  0 0 0
12 12 10  18 149 205  0 163 233  0 163 232  0 163 232  0 163 232
0 163 232  0 163 232  0 163 233  68 140 169  0 0 0  0 0 0
0 0 0  0 0 0  0 0 0  0 0 0  0 0 0  0 0 0
0 0 0  0 0 0  0 0 0  0 0 0  0 0 0  0 0 0
0 0 0  62 153 187  0 164 234  0 163 232  0 163 232  0 163 232
0 163 232  0 163 232  0 163 232  41 131 165  0 0 0  0 0 0
0 0 0  0 0 0  0 0 0  0 0 0  0 0 0  0 0 0
0 0 0  0 0 0  0 0 0  0 0 0  0 0 0  0 0 0
0 0 0  44 119 149  0 163 232  0 163 232  0 163 232  0 163 232
0 163 232  0 163 232  0 163 232  50 182 238  0 0 0  0 0 0
0 0 0  0 0 0  0 0 0
12 12 10  18 149 205  0 163 233  0 163 232  0 163 232  0 163 232
0 163 232  0 163 232  0 163 233  68 140 169  0 0 0  0 0 0
0 0 0  0 0 0  0 0 0  0 0 0  0 0 0  0 0 0
0 0 0  0 0 0  0 0 0  0 0 0  0 0 0  0 0 0
0 0 0  62 153 187  0 164 234  0 163 232  0 163 232  0 163 232
0 163 232  0 163 232  0 163 232  41 131 165  0 0 0  0 0 0
0 0 0  0 0 0  0 0 0  0 0 0  0 0 0  0 0 0
0 0 0  0 0 0  0 0 0  0 0 0  0 0 0  0 0 0
0 0 0  44 119 149  0 163 232  0 163 232  0 163 232  0 163 232
0 163 232  0 163 232  0 163 232  50 182 238  0 0 0  0 0 0
0 0 0  0 0 0  0 0 0
12 12 10  18 149 205  0 163 233  0 163 232  0 163 232  0 163 232
0 163 232  0 163 232  0 163 233  68 140 169  0 0 0  0 0 0
0 0 0  0 0 0  0 0 0  0 0 0  0 0 0  0 0 0
0 0 0  0 0 0  0 0 0  0 0 0  0 0 0  0 0 0
0 0 0  62 153 187  0 164 234  0 163 232  0 163 232  0 163 232
0 163 232  0 163 232  0 163 232  41 131 165  0 0 0  0 0 0
0 0 0  0 0 0  0 0 0  0 0 0  0 0 0  0 0 0
0 0 0  0 0 0  0 0 0  0 0 0  0 0 0  0 0 0
0 0 0  44 119 149  0 163 232  0 163 232  0 163 232  0 163 232
0 163 232  0 163 232  0 163 232  50 182 238  0 0 0  0 0 0
0 0 0  0 0 0  0 0 0
12 12 10  18 149 205  0 163 233  0 163 232  0 163 232  0 163 232
0 163 232  0 163 232  0 163 233  68 140 169  0 0 0  0 0 0
0 0 0  0 0 0  0 0 0  0 0 0  0 0 0  0 0 0
0 0 0  0 0 0  0 0 0  0 0 0  0 0 0  0 0 0
0 0 0  62 153 187  0 164 234  0 163 232  0 163 232  0 163 232
0 163 232  0 163 232  0 163 232  41 131 166  0 0 0  0 0 0
0 0 0  0 0 0  0 0 0  0 0 0  0 0 0  0 0 0
0 0 0  0 0 0  0 0 0  0 0 0  0 0 0  0 0 0
0 0 0  44 119 148  0 163 232  0 163 232  0 163 232  0 163 232
0 163 232  0 163 232  0 163 232  49 182 238  0 0 0  0 0 0
0 0 0  0 0 0  0 0 0
12 12 10  18 149 205  0 163 233  0 163 232  0 163 232  0 163 232
0 163 232  0 163 232  0 163 233  68 140 169  0 0 0  0 0 0
0 0 0  0 0 0  0 0 0  0 0 0  0 0 0  0 0 0
0 0 0  0 0 0  0 0 0  0 0 0  0 0 0  0 0 0
0 0 0  62 153 187  0 164 234  0 163 232  0 163 232  0 163 232
0 163 232  0 163 232  0 163 232  40 129 164  0 0 0  0 0 0
0 0 0  0 0 0  0 0 0  0 0 0  0 0 0  0 0 0
0 0 0  0 0 0  0 0 0  0 0 0  0 0 0  0 0 0
0 0 0  42 117 146  0 163 232  0 163 232  0 163 232  0 163 232
0 163 232  0 163 232  0 162 232  49 182 238  0 0 0  0 0 0
0 0 0  0 0 0  0 0 0
12 12 10  18 149 205  0 163 233  0 163 232  0 163 232  0 163 232
0 163 232  0 163 232  0 163 233  68 140 169  0 0 0  0 0 0
0 0 0  0 0 0  0 0 0  0 0 0  0 0 0  0 0 0
0 0 0  0 0 0  0 0 0  0 0 0  0 0 0  0 0 0
0 0 0  62 153 187  0 164 234  0 163 232  0 163 232  0 163 232
0 163 232  0 163 232  0 163 232  56 148 182  53 53 50  54 57 55
54 57 55  54 57 55  54 57 55  54 57 55  54 57 55  54 57 55
54 57 55  54 57 55  54 57 55  54 57 55  54 57 55  54 57 55
53 56 53  64 140 168  0 163 232  0 163 232  0 163 232  0 163 232
0 163 232  0 163 232  0 162 232  48 182 238  0 0 0  0 0 0
0 0 0  0 0 0  0 0 0
12 12 10  18 149 205  0 163 233  0 163 232  0 163 232  0 163 232
0 163 232  0 163 232  0 163 233  68 140 169  0 0 0  0 0 0
0 0 0  0 0 0  0 0 0  0 0 0  0 0 0  0 0 0
0 0 0  0 0 0  0 0 0  0 0 0  0 0 0  0 0 0
0 0 0  62 153 187  0 164 234  0 163 232  0 163 232  0 163 232
0 163 232  0 163 232  0 163 232  3 163 232  11 167 234  11 167 235
11 167 234  11 167 234  11 167 234  11 167 234  11 167 234  11 167 234
11 167 234  11 167 234  11 167 234  11 167 234  11 167 234  11 167 234
11 167 234  4 164 232  0 163 232  0 163 232  0 163 232  0 163 232
0 163 232  0 163 232  0 162 232  53 183 237  0 0 0  0 0 0
0 0 0  0 0 0  0 0 0
12 12 10  18 149 205  0 163 233  0 163 232  0 163 232  0 163 232
0 163 232  0 163 232  0 163 233  68 140 169  0 0 0  0 0 0
0 0 0  0 0 0  0 0 0  0 0 0  0 0 0  0 0 0
0 0 0  0 0 0  0 0 0  0 0 0  0 0 0  0 0 0
0 0 0  62 153 187  0 164 234  0 163 232  0 163 232  0 163 232
0 163 232  0 163 232  0 163 232  0 163 232  0 163 233  0 163 232
0 163 233  0 163 233  0 163 233  0 163 233  0 163 233  0 163 233
0 163 233  0 163 233  0 163 233  0 163 233  0 163 233  0 163 233
0 163 233  0 163 232  0 163 232  0 163 232  0 163 232  0 163 232
0 163 232  0 163 232  0 163 233  68 180 224  0 0 0  0 0 0
0 0 0  0 0 0  0 0 0
12 12 10  18 149 205  0 163 233  0 163 232  0 163 232  0 163 232
0 163 232  0 163 232  0 163 233  68 140 169  0 0 0  0 0 0
0 0 0  0 0 0  0 0 0  0 0 0  0 0 0  0 0 0
0 0 0  0 0 0  0 0 0  0 0 0  0 0 0  0 0 0
0 0 0  62 153 187  0 164 234  0 163 232  0 163 232  0 163 232
0 163 232  0 163 232  0 163 232  0 163 232  0 163 232  0 163 232
0 163 232  0 163 232  0 163 232  0 163 232  0 163 232  0 163 232
0 163 232  0 163 232  0 163 232  0 163 232  0 163 232  0 163 232
0 163 232  0 163 232  0 163 232  0 163 232  0 163 232  0 163 232
0 163 232  0 163 232  0 163 234  64 170 211  5 0 0  0 0 0
0 0 0  0 0 0  0 0 0
12 12 10  18 149 205  0 163 233  0 163 232  0 163 232  0 163 232
0 163 232  0 163 232  0 163 233  68 140 169  0 0 0  0 0 0
0 0 0  0 0 0  0 0 0  0 0 0  0 0 0  0 0 0
0 0 0  0 0 0  0 0 0  0 0 0  0 0 0  0 0 0
0 0 0  62 153 187  0 164 234  0 163 232  0 163 232  0 163 232
0 163 232  0 163 232  0 163 232  0 163 232  0 163 232  0 163 232
0 163 232  0 163 232  0 163 232  0 163 232  0 163 232  0 163 232
0 163 232  0 163 232  0 163 232  0 163 232  0 163 232  0 163 232
0 163 232  0 163 232  0 163 232  0 163 232  0 163 232  0 163 232
0 163 232  0 163 232  0 163 232  8 165 231  52 107 128  0 0 0
0 0 0  0 0 0  0 0 0
12 12 10  18 149 205  0 163 233  0 163 232  0 163 232  0 163 232
0 163 232  0 163 232  0 163 233  68 140 169  0 0 0  0 0 0
0 0 0  0 0 0  0 0 0  0 0 0  0 0 0  0 0 0
0 0 0  0 0 0  0 0 0  0 0 0  0 0 0  0 0 0
0 0 0  62 153 187  0 164 234  0 163 232  0 163 232  0 163 232
0 163 232  0 163 232  0 163 232  0 163 232  0 163 232  0 163 232
0 163 232  0 163 232  0 163 232  0 163 232  0 163 232  0 163 232
0 163 232  0 163 232  0 163 232  0 163 232  0 163 232  0 163 232
0 163 232  0 163 232  0 163 232  0 163 232  0 163 232  0 163 232
0 163 232  0 163 232  0 163 232  0 163 232  12 171 239  67 101 112
0 0 0  0 0 0  0 0 0
12 12 10  18 149 205  0 163 233  0 163 232  0 163 232  0 163 232
0 163 232  0 163 232  0 163 233  68 140 169  0 0 0  0 0 0
0 0 0  0 0 0  0 0 0  0 0 0  0 0 0  0 0 0
0 0 0  0 0 0  0 0 0  0 0 0  0 0 0  0 0 0
0 0 0  62 153 187  0 164 234  0 163 232  0 163 232  0 163 232
0 163 232  0 163 232  0 163 232  0 163 232  0 163 232  0 163 232
0 163 232  0 163 232  0 163 232  0 163 232  0 163 232  0 163 232
0 163 232  0 163 232  0 163 232  0 163 232  0 163 232  0 163 232
0 163 232  0 163 232  0 163 232  0 163 232  0 163 232  0 163 232
0 163 232  0 163 232  0 163 232  0 163 232  0 162 232  10 168 235
43 80 93  0 0 0  0 0 0
12 12 10  17 149 205  0 163 233  0 163 232  0 163 232  0 163 232
0 163 232  0 163 232  0 163 233  68 140 169  0 0 0  0 0 0
0 0 0  0 0 0  0 0 0  0 0 0  0 0 0  0 0 0
0 0 0  0 0 0  0 0 0  0 0 0  0 0 0  0 0 0
0 0 0  62 153 187  0 164 234  0 163 232  0 163 232  0 163 232
0 163 232  0 163 232  0 163 232  0 163 232  0 163 232  0 163 232
0 163 232  0 163 232  0 163 232  0 163 232  0 163 232  0 163 232
0 163 232  0 163 232  0 163 232  0 163 232  0 163 232  0 163 232
0 163 232  0 163 232  0 163 232  0 163 232  0 163 232  0 163 232
0 163 232  0 163 232  0 163 232  0 163 232  0 163 232  0 163 233
30 174 234  42 78 92  1 0 0
12 12 10  17 148 205  0 163 233  1 163 232  1 163 232  1 163 232
1 163 232  1 163 232  0 161 232  73 147 175  0 0 0  0 0 0
0 0 0  0 0 0  0 0 0  0 0 0  0 0 0  0 0 0
0 0 0  0 0 0  0 0 0  0 0 0  0 0 0  0 0 0
0 0 0  62 153 187  0 164 234  1 163 232  1 163 232  1 163 232
1 163 232  1 163 232  1 163 232  1 163 232  1 163 232  1 163 232
1 163 232  1 163 232  1 163 232  1 163 232  1 163 232  1 163 232
1 163 232  1 163 232  1 163 232  1 163 232  1 163 232  1 163 232
1 163 231  0 163 232  0 163 232  0 163 232  0 163 232  0 163 232
0 161 232  0 163 232  0 163 232  0 163 232  0 163 232  0 163 232
0 162 233  24 167 227  35 63 73
12 12 10  18 149 205  0 163 233  1 163 232  1 163 232  1 163 232
1 163 232  1 163 232  0 161 232  71 144 173  0 0 0  0 0 0
0 0 0  0 0 0  0 0 0  0 0 0  0 0 0  0 0 0
0 0 0  0 0 0  0 0 0  0 0 0  0 0 0  0 0 0
0 0 0  62 153 186  0 164 234  1 163 232  1 163 232  1 163 232
1 163 232  1 163 232  1 163 232  1 163 232  1 163 232  1 163 232
1 163 232  1 163 232  1 163 232  1 163 232  1 163 232  1 163 232
1 163 232  1 163 232  1 163 232  1 163 232  1 163 232  1 163 232
1 163 232  1 163 232  1 163 232  0 163 233  0 164 232  5 163 231
63 188 238  0 162 232  0 163 232  0 163 232  0 163 232  0 163 232
0 163 233  4 164 232  35 73 86
11 12 10  25 153 206  12 168 234  13 168 234  13 168 234  13 168 234
13 168 234  13 168 234  7 167 235  74 143 173  0 0 0  0 0 0
0 0 0  0 0 0  0 0 0  0 0 0  0 0 0  0 0 0
0 0 0  0 0 0  0 0 0  0 0 0  0 0 0  0 0 0
0 0 0  66 154 186  11 169 235  13 168 234  13 168 234  13 168 234
13 168 234  13 168 234  13 168 234  13 168 234  13 168 234  13 168 234
13 168 234  13 168 234  13 168 234  13 168 234  13 168 234  13 168 234
13 168 234  13 168 234  13 168 234  13 168 234  13 168 234  13 168 234
13 168 234  13 168 235  13 168 234  9 161 225  29 154 207  62 91 100
22 25 25  29 155 208  0 164 234  0 163 232  0 163 232  0 163 232
0 164 234  43 151 196  11 11 10
5 4 4  56 107 128  60 123 149  60 123 148  60 123 148  60 123 148
60 123 148  60 123 148  59 124 151  47 74 85  0 0 0  0 0 0
0 0 0  0 0 0  0 0 0  0 0 0  0 0 0  0 0 0
0 0 0  0 0 0  0 0 0  0 0 0  0 0 0  0 0 0
0 0 0  60 95 108  60 124 150  60 123 148  60 123 148  60 123 148
60 123 148  60 123 148  60 123 148  60 123 148  60 123 148  60 123 148
60 123 148  60 123 148  60 123 148  60 123 148  60 123 148  60 123 148
60 123 148  60 123 148  60 123 148  60 123 148  60 123 148  60 123 148
60 123 148  60 123 148  60 122 147  48 84 97  35 32 29  0 0 0
0 0 0  45 54 56  34 157 208  0 163 233  0 163 232  0 163 232
30 169 227  35 40 41  0 0 0
0 0 0  0 0 0  0 0 0  0 0 0  0 0 0  0 0 0
0 0 0  0 0 0  0 0 0  0 0 0  0 0 0  0 0 0
0 0 0  0 0 0  0 0 0  0 0 0  0 0 0  0 0 0
0 0 0  0 0 0  0 0 0  0 0 0  0 0 0  0 0 0
0 0 1  0 0 0  0 0 0  0 0 0  0 0 0  0 0 0
0 0 0  0 0 0  0 0 0  0 0 0  0 0 0  0 0 0
0 0 0  0 0 0  0 0 0  0 0 0  0 0 0  0 0 0
0 0 0  0 0 0  0 0 0  0 0 0  0 0 0  0 0 0
0 0 0  0 0 0  0 0 0  0 0 0  0 0 0  0 0 0
0 0 0  0 0 0  30 47 52  49 178 231  0 162 233  0 163 232
47 90 107  0 0 0  0 0 0
0 0 0  0 0 0  0 0 0  0 0 0  0 0 0  0 0 0
0 0 0  0 0 0  0 0 0  0 0 0  0 0 0  0 0 0
0 0 0  0 0 0  0 0 0  0 0 0  0 0 0  0 0 0
0 0 0  0 0 0  0 0 0  0 0 0  0 0 0  0 0 0
0 0 0  0 0 0  0 0 0  0 0 0  0 0 0  0 0 0
0 0 0  0 0 0  0 0 0  0 0 0  0 0 0  0 0 0
0 0 0  0 0 0  0 0 0  0 0 0  0 0 0  0 0 0
0 0 0  0 0 0  0 0 0  0 0 0  0 0 0  0 0 0
0 0 0  0 0 0  0 0 0  0 0 0  0 0 0  0 0 0
0 0 0  0 0 0  0 0 0  23 35 38  36 175 231  65 159 195
6 4 3  0 0 0  0 0 0
0 0 0  0 0 0  0 0 0  0 0 0  0 0 0  0 0 0
0 0 0  0 0 0  0 0 0  0 0 0  0 0 0  0 0 0
0 0 0  0 0 0  0 0 0  0 0 0  0 0 0  0 0 0
0 0 0  0 0 0  0 0 0  0 0 0  0 0 0  0 0 0
0 0 0  0 0 0  0 0 0  0 0 0  0 0 0  0 0 0
0 0 0  0 0 0  0 0 0  0 0 0  0 0 0  0 0 0
0 0 0  0 0 0  0 0 0  0 0 0  0 0 0  0 0 0
0 0 0  0 0 0  0 0 0  0 0 0  0 0 0  0 0 0
0 0 0  0 0 0  0 0 0  0 0 0  0 0 0  0 0 0
0 0 0  0 0 0  0 0 0  0 0 0  35 52 57  20 22 21
0 0 0  0 0 0  0 0 0
0 0 0  0 0 0  0 0 0  0 0 0  0 0 0  0 0 0
0 0 0  0 0 0  0 0 0  0 0 0  0 0 0  0 0 0
0 0 0  0 0 0  0 0 0  0 0 0  0 0 0  0 0 0
0 0 0  0 0 0  0 0 0  0 0 0  0 0 0  0 0 0
0 0 0  0 0 0  0 0 0  0 0 0  0 0 0  0 0 0
0 0 0  0 0 0  0 0 0  0 0 0  0 0 0  0 0 0
0 0 0  0 0 0  0 0 0  0 0 0  0 0 0  0 0 0
0 0 0  0 0 0  0 0 0  0 0 0  0 0 0  0 0 0
0 0 0  0 0 0  0 0 0  0 0 0  0 0 0  0 0 0
0 0 0  0 0 0  0 0 0  0 0 0  0 0 0  0 0 0
0 0 0  0 0 0  0 0 0
0 0 0  0 0 0  0 0 0  0 0 0  0 0 0  0 0 0
0 0 0  0 0 0  0 0 0  0 0 0  0 0 0  0 0 0
0 0 0  0 0 0  0 0 0  0 0 0  0 0 0  0 0 0
0 0 0  0 0 0  0 0 0  0 0 0  0 0 0  0 0 0
0 0 0  0 0 0  0 0 0  0 0 0  0 0 0  0 0 0
0 0 0  0 0 0  0 0 0  0 0 0  0 0 0  0 0 0
0 0 0  0 0 0  0 0 0  0 0 0  0 0 0  0 0 0
0 0 0  0 0 0  0 0 0  0 0 0  0 0 0  0 0 0
0 0 0  0 0 0  0 0 0  0 0 0  0 0 0  0 0 0
0 0 0  0 0 0  0 0 0  0 0 0  0 0 0  0 0 0
0 0 0  0 0 0  0 0 0
0 0 0  0 0 0  0 0 0  0 0 0  0 0 0  0 0 0
0 0 0  0 0 0  0 0 0  0 0 0  0 0 0  0 0 0
0 0 0  0 0 0  0 0 0  0 0 0  0 0 0  0 0 0
0 0 0  0 0 0  0 0 0  0 0 0  0 0 0  0 0 0
0 0 0  0 0 0  0 0 0  0 0 0  0 0 0  0 0 0
0 0 0  0 0 0  0 0 0  0 0 0  0 0 0  0 0 0
0 0 0  0 0 0  0 0 0  0 0 0  0 0 0  0 0 0
0 0 0  0 0 0  0 0 0  0 0 0  0 0 0  0 0 0
0 0 0  0 0 0  0 0 0  0 0 0  0 0 0  0 0 0
0 0 0  0 0 0  0 0 0  0 0 0  0 0 0  0 0 0
0 0 0  0 0 0  0 0 0
0 0 0  0 0 0  0 0 0  0 0 0  0 0 0  0 0 0
0 0 0  0 0 0  0 0 0  0 0 0  0 0 0  0 0 0
0 0 0  0 0 0  0 0 0  0 0 0  0 0 0  0 0 0
0 0 0  0 0 0  0 0 0  0 0 0  0 0 0  0 0 0
0 0 0  0 0 0  0 0 0  0 0 0  0 0 0  0 0 0
0 0 0  0 0 0  0 0 0  0 0 0  0 0 0  0 0 0
0 0 0  0 0 0  0 0 0  0 0 0  0 0 0  0 0 0
0 0 0  0 0 0  0 0 0  0 0 0  0 0 0  0 0 0
0 0 0  0 0 0  0 0 0  0 0 0  0 0 0  0 0 0
0 0 0  0 0 0  0 0 0  0 0 0  0 0 0  0 0 0
0 0 0  0 0 0  0 0 0
0 0 0  0 0 0  0 0 0  0 0 0  0 0 0  0 0 0
0 0 0  0 0 0  0 0 0  0 0 0  0 0 0  0 0 0
0 0 0  0 0 0  0 0 0  0 0 0  0 0 0  0 0 0
0 0 0  0 0 0  0 0 0  0 0 0  0 0 0  0 0 0
0 0 0  0 0 0  0 0 0  0 0 0  0 0 0  0 0 0
0 0 0  0 0 0  0 0 0  0 0 0  0 0 0  0 0 0
0 0 0  0 0 0  0 0 0  0 0 0  0 0 0  0 0 0
0 0 0  0 0 0  0 0 0  0 0 0  0 0 0  0 0 0
0 0 0  0 0 0  0 0 0  0 0 0  0 0 0  0 0 0
0 0 0  0 0 0  0 0 0  0 0 0  0 0 0  0 0 0
0 0 0  0 0 0  0 0 0
0 0 0  0 0 0  0 0 0  0 0 0  0 0 0  0 0 0
0 0 0  0 0 0  0 0 0  0 0 0  0 0 0  0 0 0
0 0 0  0 0 0  0 0 0  0 0 0  0 0 0  0 0 0
0 0 0  0 0 0  0 0 0  0 0 0  0 0 0  0 0 0
0 0 0  0 0 0  0 0 0  0 0 0  0 0 0  0 0 0
0 0 0  0 0 0  0 0 0  0 0 0  0 0 0  0 0 0
0 0 0  0 0 0  0 0 0  0 0 0  0 0 0  0 0 0
0 0 0  0 0 0  0 0 0  0 0 0  0 0 0  0 0 0
0 0 0  0 0 0  0 0 0  0 0 0  0 0 0  0 0 0
0 0 0  0 0 0  0 0 0  0 0 0  0 0 0  0 0 0
0 0 0  0 0 0  0 0 0
0 0 0  0 0 0  0 0 0  0 0 0  0 0 0  0 0 0
0 0 0  0 0 0  0 0 0  0 0 0  0 0 0  0 0 0
0 0 0  0 0 0  0 0 0  0 0 0  0 0 0  0 0 0
0 0 0  0 0 0  0 0 0  0 0 0  0 0 0  0 0 0
0 0 0  0 0 0  0 0 0  0 0 0  0 0 0  0 0 0
0 0 0  0 0 0  0 0 0  0 0 0  0 0 0  0 0 0
0 0 0  0 0 0  0 0 0  0 0 0  0 0 0  0 0 0
0 0 0  0 0 0  0 0 0  0 0 0  0 0 0  0 0 0
0 0 0  0 0 0  0 0 0  0 0 0  0 0 0  0 0 0
0 0 0  0 0 0  0 0 0  0 0 0  0 0 0  0 0 0
0 0 0  0 0 0  0 0 0
0 0 0  0 0 0  0 0 0  0 0 0  0 0 0  0 0 0
0 0 0  0 0 0  0 0 0  0 0 0  0 0 0  0 0 0
0 0 0  0 0 0  0 0 0  0 0 0  0 0 0  0 0 0
0 0 0  0 0 0  0 0 0  0 0 0  0 0 0  0 0 0
0 0 0  0 0 0  0 0 0  0 0 0  0 0 0  0 0 0
0 0 0  0 0 0  0 0 0  0 0 0  0 0 0  0 0 0
0 0 0  0 0 0  0 0 0  0 0 0  0 0 0  0 0 0
0 0 0  0 0 0  0 0 0  0 0 0  0 0 0  0 0 0
0 0 0  0 0 0  0 0 0  0 0 0  0 0 0  0 0 0
0 0 0  0 0 0  0 0 0  0 0 0  0 0 0  0 0 0
0 0 0  0 0 0  0 0 0
0 0 0  0 0 0  0 0 0  0 0 0  0 0 0  0 0 0
0 0 0  0 0 0  0 0 0  0 0 0  0 0 0  0 0 0
0 0 0  0 0 0  0 0 0  0 0 0  0 0 0  0 0 0
0 0 0  0 0 0  0 0 0  0 0 0  0 0 0  0 0 0
0 0 0  0 0 0  0 0 0  0 0 0  0 0 0  0 0 0
0 0 0  0 0 0  0 0 0  0 0 0  0 0 0  0 0 0
0 0 0  0 0 0  0 0 0  0 0 0  0 0 0  0 0 0
0 0 0  0 0 0  0 0 0  0 0 0  0 0 0  0 0 0
0 0 0  0 0 0  0 0 0  0 0 0  0 0 0  0 0 0
0 0 0  0 0 0  0 0 0  0 0 0  0 0 0  0 0 0
0 0 0  0 0 0  0 0 0
0 0 0  0 0 0  0 0 0  0 0 0  0 0 0  0 0 0
0 0 0  0 0 0  0 0 0  0 0 0  0 0 0  0 0 0
0 0 0  0 0 0  0 0 0  0 0 0  0 0 0  0 0 0
0 0 0  0 0 0  0 0 0  0 0 0  0 0 0  0 0 0
0 0 0  0 0 0  0 0 0  0 0 0  0 0 0  0 0 0
0 0 0  0 0 0  0 0 0  0 0 0  0 0 0  0 0 0
0 0 0  0 0 0  0 0 0  0 0 0  0 0 0  0 0 0
0 0 0  0 0 0  0 0 0  0 0 0  0 0 0  0 0 0
0 0 0  0 0 0  0 0 0  0 0 0  0 0 0  0 0 0
0 0 0  0 0 0  0 0 0  0 0 0  0 0 0  0 0 0
0 0 0  0 0 0  0 0 0
0 0 0  0 0 0  0 0 0  0 0 0  0 0 0  0 0 0
0 0 0  0 0 0  0 0 0  0 0 0  0 0 0  0 0 0
0 0 0  0 0 0  0 0 0  0 0 0  0 0 0  0 0 0
0 0 0  0 0 0  0 0 0  0 0 0  0 0 0  0 0 0
0 0 0  0 0 0  0 0 0  0 0 0  0 0 0  0 0 0
0 0 0  0 0 0  0 0 0  0 0 0  0 0 0  0 0 0
0 0 0  0 0 0  0 0 0  0 0 0  0 0 0  0 0 0
0 0 0  0 0 0  0 0 0  0 0 0  0 0 0  0 0 0
0 0 0  0 0 0  0 0 0  0 0 0  0 0 0  0 0 0
0 0 0  0 0 0  0 0 0  0 0 0  0 0 0  0 0 0
0 0 0  0 0 0  0 0 0
0 0 0  0 0 0  0 0 0  0 0 0  0 0 0  0 0 0
0 0 0  0 0 0  0 0 0  0 0 0  0 0 0  0 0 0
0 0 0  0 0 0  0 0 0  0 0 0  0 0 0  0 0 0
0 0 0  0 0 0  0 0 0  0 0 0  0 0 0  0 0 0
0 0 0  0 0 0  0 0 0  0 0 0  0 0 0  0 0 0
0 0 0  0 0 0  0 0 0  0 0 0  0 0 0  0 0 0
0 0 0  0 0 0  0 0 0  0 0 0  0 0 0  0 0 0
0 0 0  0 0 0  0 0 0  0 0 0  0 0 0  0 0 0
0 0 0  0 0 0  0 0 0  0 0 0  0 0 0  0 0 0
0 0 0  0 0 0  0 0 0  0 0 0  0 0 0  0 0 0
0 0 0  0 0 0  0 0 0
0 0 0  0 0 0  0 0 0  0 0 0  0 0 0  0 0 0
0 0 0  0 0 0  0 0 0  0 0 0  0 0 0  0 0 0
0 0 0  0 0 0  0 0 0  0 0 0  0 0 0  0 0 0
0 0 0  0 0 0  0 0 0  0 0 0  0 0 0  0 0 0
0 0 0  0 0 0  0 0 0  0 0 0  0 0 0  0 0 0
0 0 0  0 0 0  0 0 0  0 0 0  0 0 0  0 0 0
0 0 0  0 0 0  0 0 0  0 0 0  0 0 0  0 0 0
0 0 0  0 0 0  0 0 0  0 0 0  0 0 0  0 0 0
0 0 0  0 0 0  0 0 0  0 0 0  0 0 0  0 0 0
0 0 0  0 0 0  0 0 0  0 0 0  0 0 0  0 0 0
0 0 0  0 0 0  0 0 0
0 0 0  0 0 0  0 0 0  0 0 0  0 0 0  0 0 0
0 0 0  0 0 0  0 0 0  0 0 0  0 0 0  0 0 0
0 0 0  0 0 0  0 0 0  0 0 0  0 0 0  0 0 0
0 0 0  0 0 0  0 0 0  0 0 0  0 0 0  0 0 0
0 0 0  0 0 0  0 0 0  0 0 0  0 0 0  0 0 0
0 0 0  0 0 0  0 0 0  0 0 0  0 0 0  0 0 0
0 0 0  0 0 0  0 0 0  0 0 0  0 0 0  0 0 0
0 0 0  0 0 0  0 0 0  0 0 0  0 0 0  0 0 0
0 0 0  0 0 0  0 0 0  0 0 0  0 0 0  0 0 0
0 0 0  0 0 0  0 0 0  0 0 0  0 0 0  0 0 0
0 0 0  0 0 0  0 0 0
0 0 0  0 0 0  0 0 0  0 0 0  0 0 0  0 0 0
0 0 0  0 0 0  0 0 0  0 0 0  0 0 0  0 0 0
0 0 0  0 0 0  0 0 0  0 0 0  0 0 0  0 0 0
0 0 0  0 0 0  0 0 0  0 0 0  0 0 0  0 0 0
0 0 0  0 0 0  0 0 0  0 0 0  0 0 0  0 0 0
0 0 0  0 0 0  0 0 0  0 0 0  0 0 0  0 0 0
0 0 0  0 0 0  0 0 0  0 0 0  0 0 0  0 0 0
0 0 0  0 0 0  0 0 0  0 0 0  0 0 0  0 0 0
0 0 0  0 0 0  0 0 0  0 0 0  0 0 0  0 0 0
0 0 0  0 0 0  0 0 0  0 0 0  0 0 0  0 0 0
0 0 0  0 0 0  0 0 0
0 0 0  0 0 0  0 0 0  0 0 0  0 0 0  0 0 0
0 0 0  0 0 0  0 0 0  0 0 0  0 0 0  0 0 0
0 0 0  0 0 0  0 0 0  0 0 0  0 0 0  0 0 0
0 0 0  0 0 0  0 0 0  0 0 0  0 0 0  0 0 0
0 0 0  0 0 0  0 0 0  0 0 0  0 0 0  0 0 0
0 0 0  0 0 0  0 0 0  0 0 0  0 0 0  0 0 0
0 0 0  0 0 0  0 0 0  0 0 0  0 0 0  0 0 0
0 0 0  0 0 0  0 0 0  0 0 0  0 0 0  0 0 0
0 0 0  0 0 0  0 0 0  0 0 0  0 0 0  0 0 0
0 0 0  0 0 0  0 0 0  0 0 0  0 0 0  0 0 0
0 0 0  0 0 0  0 0 0
0 0 0  0 0 0  0 0 0  0 0 0  0 0 0  0 0 0
0 0 0  0 0 0  0 0 0  0 0 0  0 0 0  0 0 0
0 0 0  0 0 0  0 0 0  0 0 0  0 0 0  0 0 0
0 0 0  0 0 0  0 0 0  0 0 0  0 0 0  0 0 0
0 0 0  0 0 0  0 0 0  0 0 0  0 0 0  0 0 0
0 0 0  0 0 0  0 0 0  0 0 0  0 0 0  0 0 0
0 0 0  0 0 0  0 0 0  0 0 0  0 0 0  0 0 0
0 0 0  0 0 0  0 0 0  0 0 0  0 0 0  0 0 0
0 0 0  0 0 0  0 0 0  0 0 0  0 0 0  0 0 0
0 0 0  0 0 0  0 0 0  0 0 0  0 0 0  0 0 0
0 0 0  0 0 0  0 0 0
